<svg width="225" height="65" viewBox="0 0 225 65" fill="none" xmlns="http://www.w3.org/2000/svg">
<path d="M217.992 39.7243L224.234 43.3879C222.208 46.015 217.362 50.5224 208.985 50.5224C198.582 50.5224 190.835 43.4362 190.835 34.4218C190.835 24.8292 198.664 18.3215 208.109 18.3215C217.608 18.3215 222.262 24.9735 223.768 28.5648L224.59 30.3968L200.116 39.3146C201.977 42.5444 204.879 44.1834 208.985 44.1834C213.092 44.1834 215.938 42.3997 217.992 39.7243V39.7243ZM198.802 33.9161L215.145 27.9384C214.241 25.9381 211.559 24.5162 208.355 24.5162C204.277 24.5162 198.61 27.6977 198.802 33.9161Z" fill="#FF302F"/>
<path d="M179.036 1.90784H186.92V49.0522H179.036V1.90746V1.90784Z" fill="#20B15A"/>
<path d="M166.608 19.5747H174.218V48.2083C174.218 60.0906 166.252 64.9834 156.834 64.9834C147.965 64.9834 142.627 59.7292 140.628 55.4632L147.609 52.9081C148.868 55.5351 151.907 58.6447 156.834 58.6447C162.884 58.6447 166.608 55.3425 166.608 49.1725V46.8588H166.334C164.527 48.7868 161.078 50.522 156.698 50.522C147.554 50.522 139.177 43.5082 139.177 34.4701C139.177 25.3833 147.554 18.2975 156.698 18.2975C161.05 18.2975 164.527 20.0088 166.334 21.8888H166.608V19.5751V19.5747ZM167.155 34.4701C167.155 28.7818 162.857 24.6362 157.382 24.6362C151.852 24.6362 147.198 28.7818 147.198 34.4701C147.198 40.0857 151.852 44.159 157.382 44.159C162.857 44.1834 167.155 40.0857 167.155 34.4701H167.155Z" fill="#3686F7"/>
<path d="M95.8957 34.3494C95.8957 43.6289 87.6832 50.4497 77.6087 50.4497C67.5347 50.4497 59.3218 43.6049 59.3218 34.3494C59.3218 25.0219 67.5347 18.2251 77.6087 18.2251C87.6832 18.2251 95.8957 25.0219 95.8957 34.3494ZM87.9021 34.3494C87.9021 28.5652 83.1384 24.5878 77.6087 24.5878C72.0791 24.5878 67.3154 28.5652 67.3154 34.3494C67.3154 40.0856 72.0791 44.111 77.6087 44.111C83.1388 44.111 87.9021 40.0856 87.9021 34.3494Z" fill="#FF302F"/>
<path d="M135.837 34.4218C135.837 43.7013 127.624 50.522 117.55 50.522C107.476 50.522 99.2632 43.7009 99.2632 34.4218C99.2632 25.0943 107.476 18.3215 117.55 18.3215C127.624 18.3215 135.837 25.0703 135.837 34.4218V34.4218ZM127.816 34.4218C127.816 28.6375 123.053 24.6601 117.523 24.6601C111.993 24.6601 107.229 28.6375 107.229 34.4218C107.229 40.158 111.993 44.1834 117.523 44.1834C123.08 44.1834 127.816 40.134 127.816 34.4218Z" fill="#FFBA40"/>
<path d="M29.2632 43.4603C17.7926 43.4603 8.81368 35.3136 8.81368 25.2146C8.81368 15.116 17.7926 6.96933 29.2632 6.96933C35.4503 6.96933 39.967 9.11433 43.3068 11.8621L48.8096 7.0177C44.1558 3.08906 37.9415 0.0998383 29.2632 0.0998383C13.5497 0.100225 0.326965 11.3804 0.326965 25.2146C0.326965 39.0495 13.5497 50.3294 29.2632 50.3294C37.7499 50.3294 44.1558 47.871 49.1656 43.2916C54.312 38.7601 55.8998 32.3971 55.8998 27.2393C55.8998 25.6243 55.6809 23.9614 55.4344 22.7322H29.2632V29.4326H47.9061C47.3586 33.6267 45.853 36.4948 43.6355 38.4467C40.9526 40.8332 36.7097 43.4603 29.2632 43.4603V43.4603Z" fill="#3686F7"/>
</svg>
