<svg width="17" height="17" viewBox="0 0 17 17" fill="none" xmlns="http://www.w3.org/2000/svg">
<circle cx="8.5" cy="8.5" r="8.5" fill="white"/>
<path d="M14.6284 7.27594H14.125V7.25H8.5V9.75H12.0322C11.5169 11.2053 10.1322 12.25 8.5 12.25C6.42906 12.25 4.75 10.5709 4.75 8.5C4.75 6.42906 6.42906 4.75 8.5 4.75C9.45594 4.75 10.3256 5.11063 10.9878 5.69969L12.7556 3.93188C11.6394 2.89156 10.1463 2.25 8.5 2.25C5.04844 2.25 2.25 5.04844 2.25 8.5C2.25 11.9516 5.04844 14.75 8.5 14.75C11.9516 14.75 14.75 11.9516 14.75 8.5C14.75 8.08094 14.7069 7.67188 14.6284 7.27594Z" fill="#FFC107"/>
<path d="M2.97062 5.59094L5.02406 7.09688C5.57969 5.72125 6.92531 4.75 8.5 4.75C9.45594 4.75 10.3256 5.11062 10.9878 5.69969L12.7556 3.93187C11.6394 2.89156 10.1463 2.25 8.5 2.25C6.09937 2.25 4.0175 3.60531 2.97062 5.59094Z" fill="#FF3D00"/>
<path d="M8.5 14.75C10.1144 14.75 11.5812 14.1322 12.6903 13.1275L10.7559 11.4906C10.1074 11.9839 9.31483 12.2506 8.5 12.25C6.87438 12.25 5.49406 11.2134 4.97406 9.76688L2.93594 11.3372C3.97031 13.3613 6.07094 14.75 8.5 14.75Z" fill="#4CAF50"/>
<path d="M14.6284 7.27594H14.125V7.25H8.5V9.75H12.0322C11.7857 10.4426 11.3417 11.0479 10.755 11.4909L10.7559 11.4903L12.6903 13.1272C12.5534 13.2516 14.75 11.625 14.75 8.5C14.75 8.08094 14.7069 7.67188 14.6284 7.27594Z" fill="#1976D2"/>
</svg>
