<svg width="225" height="73" viewBox="0 0 225 73" fill="none" xmlns="http://www.w3.org/2000/svg">
<path d="M217.992 44.6134L224.234 48.7279C222.208 51.6784 217.362 56.7406 208.985 56.7406C198.582 56.7406 190.835 48.7823 190.835 38.6583C190.835 27.8851 198.664 20.5764 208.109 20.5764C217.608 20.5764 222.262 28.0472 223.768 32.0805L224.59 34.1379L200.116 44.1533C201.977 47.7807 204.879 49.6213 208.985 49.6213C213.092 49.6213 215.938 47.6182 217.992 44.6134V44.6134ZM198.802 38.0904L215.145 31.377C214.241 29.1305 211.559 27.5336 208.355 27.5336C204.277 27.5336 198.61 31.1067 198.802 38.0904Z" fill="#FF302F"/>
<path d="M179.036 2.14265H186.92V55.0894H179.036V2.14221V2.14265Z" fill="#20B15A"/>
<path d="M166.608 21.9839H174.218V54.1417C174.218 67.4863 166.252 72.9813 156.834 72.9813C147.965 72.9813 142.627 67.0805 140.628 62.2894L147.609 59.4198C148.868 62.3702 151.907 65.8625 156.834 65.8625C162.884 65.8625 166.608 62.1539 166.608 55.2245V52.626H166.334C164.527 54.7913 161.078 56.7401 156.698 56.7401C147.554 56.7401 139.177 48.8631 139.177 38.7126C139.177 28.5074 147.554 20.5495 156.698 20.5495C161.05 20.5495 164.527 22.4714 166.334 24.5828H166.608V21.9843V21.9839ZM167.155 38.7126C167.155 32.3242 162.857 27.6683 157.382 27.6683C151.852 27.6683 147.198 32.3242 147.198 38.7126C147.198 45.0193 151.852 49.5939 157.382 49.5939C162.857 49.6213 167.155 45.0193 167.155 38.7126H167.155Z" fill="#3686F7"/>
<path d="M95.8957 38.577C95.8957 48.9986 87.6832 56.6589 77.6087 56.6589C67.5347 56.6589 59.3218 48.9717 59.3218 38.577C59.3218 28.1015 67.5347 20.4682 77.6087 20.4682C87.6832 20.4682 95.8957 28.1015 95.8957 38.577ZM87.9021 38.577C87.9021 32.0809 83.1384 27.614 77.6087 27.614C72.0791 27.614 67.3154 32.0809 67.3154 38.577C67.3154 45.0193 72.0791 49.54 77.6087 49.54C83.1388 49.54 87.9021 45.0193 87.9021 38.577Z" fill="#FF302F"/>
<path d="M135.837 38.6583C135.837 49.0799 127.624 56.7401 117.55 56.7401C107.476 56.7401 99.2632 49.0795 99.2632 38.6583C99.2632 28.1828 107.476 20.5764 117.55 20.5764C127.624 20.5764 135.837 28.1558 135.837 38.6583V38.6583ZM127.816 38.6583C127.816 32.1622 123.053 27.6952 117.523 27.6952C111.993 27.6952 107.229 32.1622 107.229 38.6583C107.229 45.1005 111.993 49.6213 117.523 49.6213C123.08 49.6213 127.816 45.0736 127.816 38.6583Z" fill="#FFBA40"/>
<path d="M29.2632 48.8092C17.7926 48.8092 8.81368 39.6599 8.81368 28.3179C8.81368 16.9764 17.7926 7.82709 29.2632 7.82709C35.4503 7.82709 39.967 10.2361 43.3068 13.3221L48.8096 7.88141C44.1558 3.46925 37.9415 0.112122 29.2632 0.112122C13.5497 0.112556 0.326965 12.7811 0.326965 28.3179C0.326965 43.8556 13.5497 56.5237 29.2632 56.5237C37.7499 56.5237 44.1558 53.7628 49.1656 48.6198C54.312 43.5306 55.8998 36.3844 55.8998 30.5918C55.8998 28.7781 55.6809 26.9105 55.4344 25.53H29.2632V33.0551H47.9061C47.3586 37.7653 45.853 40.9865 43.6355 43.1786C40.9526 45.8588 36.7097 48.8092 29.2632 48.8092V48.8092Z" fill="#3686F7"/>
</svg>
